<?xml version="1.0" encoding="utf-8"?>
<!-- Generator: Adobe Illustrator 23.0.3, SVG Export Plug-In . SVG Version: 6.00 Build 0)  -->
<svg version="1.1" id="Layer_1" xmlns="http://www.w3.org/2000/svg" xmlns:xlink="http://www.w3.org/1999/xlink" x="0px" y="0px"
	 viewBox="0 0 500 500" style="enable-background:new 0 0 500 500;" xml:space="preserve">
<style type="text/css">
	.st0{fill:#333333;}
	.st1{fill:#FFCB08;}
</style>
<g>
	<g>
		<path class="st0" d="M52.84,115.95c-2.59-3.46-5.09-7.01-7.47-10.63c-2.38-3.62-4.65-7.32-6.76-11.08
			c-0.33-0.58-0.58-1.3-0.75-2.09c-0.51-2.37-0.29-5.33,0.81-6.84c6.8-9.41,14.22-18.39,21.73-27.27c0.33-0.39,0.78-0.78,1.3-1.14
			c1.04-0.72,2.34-1.31,3.42-1.49c0.54-0.09,1.03-0.07,1.4,0.08c13.67,5.62,27.34,11.49,41.14,17.44
			c7.26-5.77,14.92-11.03,22.85-15.91c-19.04-7.65-37.99-15.54-57.01-23.27c-7.58-3.08-14.56-1.62-21.28,3.05
			C40.85,44.7,31.47,54.27,23.37,65.62c-9.53,13.36-11.28,26.45-2.85,40.56c8.35,13.99,16.98,27.82,25.28,41.83
			c4.31-8.31,8.99-16.37,14.24-24.06C57.47,121.49,55.03,118.87,52.84,115.95z"/>
		<path class="st0" d="M447.16,115.95c2.59-3.46,5.09-7.01,7.47-10.63s4.65-7.32,6.76-11.08c0.33-0.58,0.58-1.3,0.75-2.09
			c0.51-2.37,0.29-5.33-0.81-6.84c-6.8-9.41-14.22-18.39-21.73-27.27c-0.33-0.39-0.78-0.78-1.3-1.14c-1.04-0.72-2.34-1.31-3.42-1.49
			c-0.54-0.09-1.03-0.07-1.4,0.08c-13.67,5.62-27.34,11.49-41.14,17.44c-7.26-5.77-14.92-11.03-22.85-15.91
			c19.04-7.65,37.99-15.54,57.01-23.27c7.58-3.08,14.56-1.62,21.28,3.05c11.36,7.91,20.75,17.47,28.84,28.82
			c9.53,13.36,11.28,26.45,2.85,40.56c-8.35,13.99-16.98,27.82-25.28,41.83c-4.31-8.31-8.99-16.37-14.24-24.06
			C442.53,121.49,444.97,118.87,447.16,115.95z"/>
		<path class="st1" d="M60.12,123.85c13.19-19.29,29.26-36.4,47.52-50.92c-13.82-5.95-27.45-11.81-41.13-17.45
			c-0.37-0.15-0.86-0.17-1.4-0.08c-1.08,0.18-2.38,0.77-3.42,1.49c-0.52,0.36-0.97,0.75-1.3,1.14C52.88,66.9,45.46,75.88,38.66,85.3
			c-1.1,1.52-1.32,4.48-0.81,6.84c0.17,0.79,0.42,1.51,0.75,2.09c2.12,3.76,4.38,7.46,6.76,11.08c2.38,3.62,4.88,7.17,7.48,10.63
			C55.03,118.87,57.55,121.39,60.12,123.85z"/>
		<path class="st1" d="M439.88,123.85c-13.19-19.29-29.26-36.4-47.52-50.92c13.82-5.95,27.45-11.81,41.13-17.45
			c0.37-0.15,0.86-0.17,1.4-0.08c1.08,0.18,2.38,0.77,3.42,1.49c0.52,0.36,0.97,0.75,1.3,1.14c7.51,8.87,14.93,17.85,21.73,27.27
			c1.1,1.52,1.32,4.48,0.81,6.84c-0.17,0.79-0.42,1.51-0.75,2.09c-2.12,3.76-4.38,7.46-6.76,11.08s-4.88,7.17-7.48,10.63
			C444.97,118.87,442.45,121.39,439.88,123.85z"/>
	</g>
	<circle class="st0" cx="250.88" cy="250" r="231"/>
	<path class="st1" d="M334.2,410.87h82.27c37.48-38.57,61.41-90.17,64.73-147.36C430.86,313.98,382.62,362.33,334.2,410.87z"/>
	<path class="st1" d="M425.89,303.02c18.18-18.1,36.46-36.1,54.28-54.54c0.62-0.65,1.07-1.57,1.51-2.48
		c-1-58.08-23.45-110.79-59.74-150.86c0,70.53,0,139.93,0,210.4C423.87,304.33,425.05,303.85,425.89,303.02z"/>
	<path class="st1" d="M88.7,414.4c37.92,37.41,88.73,61.62,145.15,65.74c-47.84-48.92-95.88-98.06-145.3-148.6
		C88.55,360.34,88.47,387.38,88.7,414.4z"/>
	<path class="st1" d="M195.34,422.58c2.4,2.88,3.88,4.91,5.61,6.64c16.46,16.49,32.74,33.17,49.65,49.17
		c0.97,0.92,2.18,1.73,3.49,2.45c57.57-0.79,109.91-22.7,149.95-58.26H195.34z"/>
	<path class="st1" d="M31.79,239.51c-5.66,4.87-9.38,9.9-11.66,15.36c1.19,56.84,22.9,108.52,58.03,148.15
		c0-70.65,0-139.16,0-209.79C61.8,209.76,47.77,225.77,31.79,239.51z"/>
	<path class="st1" d="M86.28,88.05c-37.23,37.83-61.34,88.44-65.52,144.65c48.17-47.75,96.82-95.98,146.06-144.79
		C139.76,87.91,113.01,87.84,86.28,88.05z"/>
	<path class="st1" d="M297.86,68.37c-14.76-14.82-29.87-29.3-44.18-44.55c-1.89-2.01-3.83-3.46-5.83-4.67
		C190.1,19.9,137.6,41.9,97.49,77.62c68.94,0,137.91,0,209.16,0C302.82,73.58,300.4,70.91,297.86,68.37z"/>
	<path class="st1" d="M411.37,88.26c-0.04-1.69-0.51-3.49-1.19-5.28C371.9,46.46,321.16,23.1,264.93,19.71
		c49.05,48.85,97.58,97.17,146.73,146.12C411.66,140.08,411.98,114.16,411.37,88.26z"/>
	<g>
		<g>
			<path class="st1" d="M237.57,381.43c-3.32,3.03-6.58,6.11-9.84,9.14c8.11,10.43,43.16,10.47,49.66,0.05
				c-8.15-7.44-16.35-14.93-24.87-22.71C247.34,372.6,242.43,376.99,237.57,381.43z"/>
		</g>
		<path class="st1" d="M219.66,372.57c-3.9-5.37-7.61-10.49-11.94-16.46c5.66-3.04,10.91-5.74,16.03-8.69
			c1.46-0.84,2.51-2.38,3.75-3.59c-1.87-0.24-4.01-1.18-5.56-0.58c-5.89,2.27-11.58,5.04-17.82,7.84c-1.92-2.66-4.07-5.63-7.15-9.9
			c8.25-3.02,15.94-5.78,23.58-8.69c1.42-0.54,2.6-1.74,3.89-2.64c-1.58-0.63-3.38-2.1-4.71-1.76c-8.67,2.19-17.25,4.78-26.72,7.48
			c-0.71-0.97-2.12-2.88-4.06-5.52c9.5-3.51,18.4-6.81,27.31-10.09c1.32-0.49,2.89-0.59,3.98-1.38c1.35-0.99,2.32-2.51,3.45-3.8
			c-1.6-0.51-3.43-1.79-4.76-1.4c-9.49,2.78-18.88,5.89-28.3,8.91c-1.83,0.59-3.64,1.24-6.78,2.31c-1.01-4.54-2.99-8.77-2.64-12.79
			c1.01-11.4,2.98-22.71,4.01-34.95c-0.55,0.91-1.08,1.84-1.65,2.73c-7.27,11.47-14.42,23.02-21.93,34.33
			c-1.14,1.72-4.18,3.55-5.98,3.24c-9.32-1.62-18.57-3.71-27.69-6.2c-1.5-0.41-2.8-3.52-3.22-5.58c-3.3-16.09-6.46-32.21-9.44-48.36
			c-1.34-7.29-2-14.71-3.28-22.02c-1.33-7.62,1.03-14.47,4.45-20.87c15.43-28.82,31.15-57.48,46.64-86.28
			c3.54-6.58,8.75-10.23,15.99-11.77c21.93-4.67,43.68-10.37,65.78-14c8.86-1.46,18.59,0.67,27.66,2.49
			c17.48,3.5,34.76,8.01,52.15,11.95c4.94,1.12,8.93,3.4,11.43,7.82c10.6,18.76,21.21,37.52,31.67,56.36
			c5.75,10.35,10.9,21.04,16.87,31.25c6.01,10.29,6.35,21,4.29,32.27c-3.59,19.64-7.09,39.29-10.4,58.98
			c-0.84,5.01-3.24,7.91-8.12,9.1c-8.38,2.05-16.71,4.33-25.1,6.35c-3.11,0.75-4.95-0.2-6.12-3.81
			c-4.62-14.33-13.78-26.05-23.37-37.69c1.62,8.9,3.28,17.79,4.85,26.7c1.75,9.99,1.02,13.86-3.6,19.99
			c-10.43-3.27-20.86-6.53-31.28-9.8c-0.84-0.26-1.76-0.87-2.52-0.72c-1.7,0.35-3.32,1.07-4.98,1.64c1.16,1.23,2.09,3.04,3.52,3.6
			c9.36,3.69,18.83,7.1,28.25,10.62c0.81,0.3,1.56,0.76,2.74,1.34c-1.46,2.05-2.75,3.87-3.91,5.49c-7.73-2.53-15.19-5.01-22.69-7.38
			c-1.5-0.47-3.17-0.79-4.7-0.63c-1.31,0.14-2.52,1.08-3.78,1.67c1.08,0.92,2.01,2.23,3.25,2.69c7.72,2.85,15.51,5.52,24.2,8.57
			c-3,4.25-5.17,7.32-7.1,10.05c-6.44-2.83-12.32-5.61-18.37-7.93c-1.37-0.52-3.35,0.57-5.05,0.91c1.1,1.12,2.03,2.57,3.35,3.31
			c5.21,2.92,10.54,5.61,16.49,8.73c-4.29,5.9-8.08,11.13-12.05,16.6c-8.35-5.75-16.42-11.16-24.29-16.87
			c-1.29-0.94-2.3-3.13-2.36-4.77c-0.25-7.42-0.32-14.87,0.02-22.29c0.1-2.23,1.27-4.78,2.74-6.52
			c7.53-8.91,15.51-17.45,22.89-26.49c1.73-2.12,2.95-6.1,2.13-8.42c-0.66-1.89-4.71-3.58-7.29-3.63c-16.8-0.32-33.62-0.32-50.43,0
			c-2.58,0.05-6.64,1.7-7.31,3.57c-0.83,2.33,0.33,6.33,2.06,8.45c7.13,8.78,15.01,16.95,22.15,25.72c2.02,2.48,3.14,6.14,3.53,9.4
			c0.58,4.89-0.38,9.96,0.28,14.83c0.9,6.63-1.97,10.45-7.3,13.7C232.68,363.32,226.42,367.95,219.66,372.57z M168.81,137.13
			c0.45,1.99,0.67,3.88,1.31,5.62c1.69,4.57,5.36,7.27,9.46,7.01c4.65-0.3,7.85-3.15,8.64-7.34c0.71-3.78,0.44-8.03-0.57-11.76
			c-1.04-3.83-4.31-6.1-8.63-6.04c-4.33,0.06-6.98,2.65-8.6,6.28C169.56,132.84,169.33,135.06,168.81,137.13z M164.6,176.92
			c5.56,0.1,10.16-4.26,10.36-9.85c0.22-5.97-4.08-10.59-9.98-10.72c-5.69-0.13-10.57,4.66-10.53,10.34
			C154.48,172.1,159.16,176.82,164.6,176.92z M217.38,134.9c5.56,0.1,10.16-4.26,10.36-9.85c0.22-5.97-4.08-10.59-9.98-10.72
			c-5.69-0.13-10.57,4.66-10.53,10.34C207.26,130.08,211.94,134.8,217.38,134.9z M342.58,256.26c0.06,4.37,3.32,7.64,7.63,7.65
			c4.42,0.01,7.99-3.61,7.88-7.96c-0.11-4.28-3.51-7.61-7.79-7.64C345.77,248.27,342.52,251.63,342.58,256.26z M211.09,140.59
			c-1.71-3.31-2.53-5.81-4.16-7.57c-0.6-0.65-3.41,0-4.68,0.84c-4.6,3.08-7.73,13.52-5.9,18.64c1.42,3.97,4.58,5.17,7.08,1.92
			C206.59,150.3,208.57,145.27,211.09,140.59z M352.34,294.78c1.19,3.54,1.62,6.13,2.97,8.11c0.5,0.73,3.37,0.52,4.75-0.13
			c5.01-2.35,9.69-12.19,8.66-17.54c-0.8-4.13-3.74-5.81-6.7-2.97C358.26,285.86,355.54,290.53,352.34,294.78z M374.12,259.1
			c-0.27-0.12-0.55-0.24-0.82-0.35c-0.13-1.58,0.17-3.36-0.49-4.68c-0.94-1.89-2.38-4.55-3.96-4.83c-1.55-0.27-4.74,1.75-5.12,3.29
			c-1.32,5.31-2,10.83-2.3,16.31c-0.07,1.36,2.01,3.67,3.47,4.03c1.34,0.33,3.98-0.97,4.66-2.27
			C371.47,266.97,372.65,262.96,374.12,259.1z M188.73,170.39c3.44-0.43,6.63-1.93,6.51-6.26c-0.12-4.3-3.43-6.03-7.23-5.95
			c-3.81,0.08-7.12,2.06-6.99,6.25C181.16,168.54,184.32,170.25,188.73,170.39z M197.81,129.87c2.36-0.29,4.55-1.32,4.47-4.29
			c-0.08-2.95-2.35-4.13-4.96-4.08c-2.61,0.05-4.88,1.41-4.79,4.29C192.62,128.6,194.78,129.77,197.81,129.87z M343.74,287.26
			c2.95-0.22,5.25-1.97,5.25-5.84c0-3.69-3.94-7.25-7.83-6.96c-3.54,0.25-5.98,1.95-5.92,5.94
			C335.3,284.33,338.72,287.35,343.74,287.26z M355.9,277.59c1.58-0.12,2.81-1.05,2.81-3.13c0-1.98-2.11-3.88-4.2-3.73
			c-1.89,0.14-3.2,1.05-3.17,3.18C351.37,276.02,353.21,277.64,355.9,277.59z"/>
		<path class="st0" d="M214.21,268.36c0.6-0.96,1.19-1.93,1.8-2.88c3.42-5.28,6.12-10.91,8.02-16.91c0.93-2.95,1.8-5.92,2.65-8.89
			c0.8-2.8,0.59-3.51-1.82-4.93c-6.61-3.88-13.69-4.59-21.07-2.84c-1.19,0.28-2.36,0.64-3.82,0.67c0.91-1.21,1.83-2.41,2.73-3.61
			c-1.81-1.66-3.7-3.2-5.35-4.96c-3.83-4.11-6.22-8.98-6.97-14.58c-0.24-1.83-0.51-3.66-0.6-5.5c-0.06-1.26-0.61-1.61-1.74-1.54
			c-2.35,0.16-4.7,0.28-7.02,0.41c1.38-2.87,13.74-7.5,21.08-7.67c7.88-0.18,15.2,1.62,22,5.62c0.19-0.1,0.37-0.2,0.56-0.3
			c-1.58-3.66-3.17-7.31-4.75-10.97c0.06-0.13,0.13-0.25,0.19-0.38c1.61,1.01,3.31,1.89,4.81,3.05c7.31,5.63,11.72,13.01,13.6,22.06
			c2.68,12.92,0.22,24.9-5.91,36.35c-3.76,7.03-8.86,12.76-15.69,16.91c-0.76,0.46-1.56,0.84-2.35,1.26
			C214.45,268.61,214.33,268.49,214.21,268.36z M203.16,203.51c-0.93,2.56-0.84,4.95-0.21,7.37c1.79,6.88,6.69,10.86,13.16,12.32
			c3.79,0.86,7.96,0.18,12.21,1.93C223.59,213.26,214.83,206.92,203.16,203.51z"/>
		<path class="st0" d="M325.58,202.81c-2.41-0.14-4.81-0.27-7.22-0.42c-1.07-0.07-1.56,0.34-1.59,1.47
			c-0.24,10.19-4.04,18.58-12.56,24.55c-0.15,0.11-0.24,0.31-0.4,0.53c0.93,1.21,1.86,2.42,2.63,3.44
			c-4.12-0.43-8.21-1.16-12.31-1.22c-4.84-0.07-9.35,1.41-13.34,4.29c-1.19,0.86-1.51,1.82-1.21,3.23
			c2.03,9.51,5.67,18.36,10.83,26.58c0.59,0.94,1.19,1.88,1.77,2.83c0.05,0.08-0.02,0.25-0.12,0.99c-2.66-1.85-5.27-3.34-7.5-5.26
			c-7.63-6.55-12.47-14.86-15.29-24.48c-1.7-5.78-2.61-11.63-2.27-17.63c0.79-13.64,6.2-24.7,18.23-31.95
			c0.38-0.23,0.83-0.36,1.62-0.69c-1.75,3.99-3.36,7.65-4.97,11.31c0.12,0.13,0.24,0.26,0.35,0.38c14.9-8.2,29.36-7.33,43.43,1.48
			C325.64,202.43,325.61,202.62,325.58,202.81z M278.33,224.91c1.71-0.42,2.97-0.88,4.26-1.01c2.69-0.28,5.55,0.1,8.08-0.65
			c6.02-1.77,10.79-5.29,12.74-11.62c0.82-2.65,1.16-5.38-0.11-8.1C291.72,206.93,282.95,213.26,278.33,224.91z"/>
	</g>
</g>
</svg>
